<?xml version="1.0" encoding="UTF-8" standalone="no"?>
<svg
   xmlns:dc="http://purl.org/dc/elements/1.1/"
   xmlns:cc="http://creativecommons.org/ns#"
   xmlns:rdf="http://www.w3.org/1999/02/22-rdf-syntax-ns#"
   xmlns:svg="http://www.w3.org/2000/svg"
   xmlns="http://www.w3.org/2000/svg"
   xmlns:sodipodi="http://sodipodi.sourceforge.net/DTD/sodipodi-0.dtd"
   xmlns:inkscape="http://www.inkscape.org/namespaces/inkscape"
   enable-background="new 0 0 56.693 56.693"
   height="56.693px"
   id="Layer_1"
   version="1.1"
   viewBox="0 0 56.693 56.693"
   width="56.693px"
   xml:space="preserve"
   sodipodi:docname="behance.svg"
   inkscape:version="0.92.2 (5c3e80d, 2017-08-06)"><metadata
     id="metadata889"><rdf:RDF><cc:Work
         rdf:about=""><dc:format>image/svg+xml</dc:format><dc:type
           rdf:resource="http://purl.org/dc/dcmitype/StillImage" /></cc:Work></rdf:RDF></metadata><defs
     id="defs887" /><sodipodi:namedview
     pagecolor="#ffffff"
     bordercolor="#666666"
     borderopacity="1"
     objecttolerance="10"
     gridtolerance="10"
     guidetolerance="10"
     inkscape:pageopacity="0"
     inkscape:pageshadow="2"
     inkscape:window-width="876"
     inkscape:window-height="480"
     id="namedview885"
     showgrid="false"
     inkscape:zoom="4.1627714"
     inkscape:cx="28.3465"
     inkscape:cy="28.3465"
     inkscape:window-x="0"
     inkscape:window-y="0"
     inkscape:window-maximized="0"
     inkscape:current-layer="Layer_1" /><g
     id="g882"
     style="fill:#aaaaaa;fill-opacity:0.9939394"><path
       d="M23.556,29.975c0,0,4.701-0.35,4.701-5.863c0-5.514-3.846-8.206-8.719-8.206h-8.97h-0.263H3.503v30.815h6.802h0.263h8.97   c0,0,9.788,0.309,9.788-9.096C29.325,37.625,29.753,29.975,23.556,29.975z M10.568,21.383h7.815h1.154c0,0,2.18,0,2.18,3.205   c0,3.207-1.283,3.672-2.736,3.672h-8.414V21.383z M19.084,41.244c-0.237,0.006-0.438,0-0.573,0h-7.943V33.01h8.97   c0,0,3.249-0.043,3.249,4.23C22.786,40.846,20.36,41.217,19.084,41.244z"
       id="path876"
       style="fill:#aaaaaa;fill-opacity:0.9939394" /><path
       d="M42.382,23.746c-11.85,0-11.84,11.84-11.84,11.84s-0.812,11.779,11.84,11.779c0,0,10.545,0.602,10.545-8.195h-5.424   c0,0,0.18,3.314-4.941,3.314c0,0-5.422,0.361-5.422-5.363h15.967C53.106,37.121,54.854,23.746,42.382,23.746z M37.079,33.01   c0,0,0.662-4.75,5.422-4.75c4.762,0,4.699,4.75,4.699,4.75H37.079z"
       id="path878"
       style="fill:#aaaaaa;fill-opacity:0.9939394" /><rect
       height="3.795"
       width="12.711"
       x="35.753"
       y="17.721"
       id="rect880"
       style="fill:#aaaaaa;fill-opacity:0.9939394" /></g></svg>