<svg xmlns="http://www.w3.org/2000/svg" xmlns:xlink="http://www.w3.org/1999/xlink" height="266" style="" version="1.1" width="440" xml:space="preserve"><rect id="backgroundrect" width="100%" height="100%" x="0" y="0" fill="none" stroke="none" class="" style=""/><style type="text/css">
<![CDATA[
	.st0{display:inline;}
	.st1{fill:none;stroke:#000000;stroke-width:16;stroke-linecap:round;stroke-linejoin:round;stroke-miterlimit:10;}
	.st2{display:none;}
]]>
</style><g class="currentLayer" style=""><title>Layer 1</title><g id="layer_copy" class="" fill-opacity="1" fill="#818181"><g id="svg_6" fill="#818181"><g id="svg_7" fill="#818181"><path d="M220.17495830535887,266.00000762939453 c-40.34,0 -79.631,-10.86 -116.784,-32.281 c-38.137,-21.987 -72.319,-54.197 -101.604,-95.739 c-2.2,-2.709 -2.4370000000000003,-6.65 -0.32900000000000046,-9.646 c29.332,-41.693 63.597,-74.01 101.841,-96.054 c37.16,-21.418 76.468,-32.28 116.82,-32.28 c0.03200000000000005,0 0.05700000000000006,0 0.08900000000000013,0 c40.357,0.016000000000000025 79.648,10.893 116.782,32.329 c38.188,22.044 72.389,54.347 101.651,96.01 c0.9450000000000006,1.347 1.453,2.9530000000000003 1.453,4.598 v0.126 c0,1.6460000000000008 -0.508,3.251 -1.453,4.598 c-29.264,41.664 -63.458,73.967 -101.633,96.01 C299.8849583053589,255.10600762939453 260.6059583053589,265.98300762939454 220.2629583053589,266.00000762939453 C220.2339583053589,266.00000762939453 220.20395830535887,266.00000762939453 220.17495830535887,266.00000762939453 zM17.841958305358887,132.92500762939454 C72.59295830535889,208.47400762939452 144.26595830535888,250.00000762939453 220.17495830535887,250.00000762939453 c0.02900000000000004,0 0.05500000000000005,0 0.08300000000000012,0 c75.853,-0.030000000000000047 147.426,-41.529 202.057,-117 c-54.631,-75.471 -126.224,-116.97 -202.112,-117 c-0.023000000000000048,0 -0.05900000000000007,0 -0.08200000000000011,0 C144.2199583053589,16.00000762939453 72.58295830535889,57.461007629394544 17.841958305358887,132.92500762939454 z" id="svg_8" fill="#818181"/></g><g id="svg_9" fill="#818181"><g id="svg_10" fill="#818181"><path d="M219.90795830535887,226.50000762939453 c-51.556,0 -93.5,-41.944 -93.5,-93.5 c0,-51.556 41.944,-93.5 93.5,-93.5 c51.556,0 93.5,41.944 93.5,93.5 C313.4079583053589,184.55600762939451 271.4629583053589,226.50000762939453 219.90795830535887,226.50000762939453 zM219.90795830535887,55.50000762939453 c-42.733,0 -77.5,34.767 -77.5,77.5 s34.767,77.5 77.5,77.5 s77.5,-34.767 77.5,-77.5 S262.6409583053589,55.50000762939453 219.90795830535887,55.50000762939453 z" id="svg_11" fill="#818181"/></g><g id="svg_12" fill="#818181"><path d="M263.4079583053589,139.50000762939453 c-4.418,0 -8,-3.582 -8,-8 c0,-19.299 -15.701,-35 -35,-35 c-4.418,0 -8,-3.582 -8,-8 s3.582,-8 8,-8 c28.121,0 51,22.878 51,51 C271.4079583053589,135.91800762939454 267.8249583053589,139.50000762939453 263.4079583053589,139.50000762939453 z" id="svg_13" fill="#818181"/></g></g></g></g></g></svg>